<?xml version="1.0" encoding="utf-8"?>
<!-- Generator: Adobe Illustrator 22.1.0, SVG Export Plug-In . SVG Version: 6.00 Build 0)  -->
<svg version="1.1" id="Capa_1" xmlns="http://www.w3.org/2000/svg" xmlns:xlink="http://www.w3.org/1999/xlink" x="0px" y="0px"
	 viewBox="0 0 600 444" style="enable-background:new 0 0 600 444;" xml:space="preserve">
<style type="text/css">
	.st0{fill:#E7831E;}
	.st1{fill:#F4E74D;}
	.st2{fill:#FDBD2C;}
	.st3{fill:#F4C778;}
	.st4{fill:#DFCA00;}
	.st5{fill:#1A1A1A;}
	.st6{fill:#FFFFFF;}
	.st7{fill:#EEDB00;}
	.st8{fill:#F9EE80;}
	.st9{fill:#FF6E42;}
	.st10{fill:#FF8F71;}
	.st11{fill:#454545;}
</style>
<g>
	<g>
		<g>
			<path class="st0" d="M216.6,222.2c0,0.6-0.5,1.1-1.1,1.1l0,0c-0.6,0-1.1-0.5-1.1-1.1v-6.6c0-0.6,0.5-1.1,1.1-1.1l0,0
				c0.6,0,1.1,0.5,1.1,1.1V222.2z"/>
			<path class="st0" d="M221.2,219.3c0.4,0.4,0.5,1.1,0.1,1.5l0,0c-0.4,0.4-1.1,0.5-1.5,0.1l-4.9-4.5c-0.4-0.4-0.5-1.1-0.1-1.5l0,0
				c0.4-0.4,1.1-0.5,1.5-0.1L221.2,219.3z"/>
			<path class="st0" d="M210,219.3c-0.4,0.4-0.5,1.1-0.1,1.5l0,0c0.4,0.4,1.1,0.5,1.5,0.1l4.9-4.5c0.4-0.4,0.5-1.1,0.1-1.5l0,0
				c-0.4-0.4-1.1-0.5-1.5-0.1L210,219.3z"/>
		</g>
		<g>
			<path class="st0" d="M201.1,222.2c0,0.6-0.5,1.1-1.1,1.1l0,0c-0.6,0-1.1-0.5-1.1-1.1v-6.6c0-0.6,0.5-1.1,1.1-1.1l0,0
				c0.6,0,1.1,0.5,1.1,1.1V222.2z"/>
			<path class="st0" d="M205.6,219.3c0.4,0.4,0.5,1.1,0.1,1.5l0,0c-0.4,0.4-1.1,0.5-1.5,0.1l-4.9-4.5c-0.4-0.4-0.5-1.1-0.1-1.5l0,0
				c0.4-0.4,1.1-0.5,1.5-0.1L205.6,219.3z"/>
			<path class="st0" d="M194.4,219.3c-0.4,0.4-0.5,1.1-0.1,1.5l0,0c0.4,0.4,1.1,0.5,1.5,0.1l4.9-4.5c0.4-0.4,0.5-1.1,0.1-1.5l0,0
				c-0.4-0.4-1.1-0.5-1.5-0.1L194.4,219.3z"/>
		</g>
	</g>
	<g>
		<g>
			<path class="st1" d="M231.2,193.1c0,12.7-10.3,23-23,23h-0.9c-12.7,0-23-10.3-23-23V167c0-12.7,10.3-23,23-23h0.9
				c12.7,0,23,10.3,23,23V193.1z"/>
			<path class="st2" d="M207.3,143.9c0,0,10.4,0,12.3-3.9c0,0,1.4,1.6,0,3.9c0,0,0.1,0.8,2.3,0c0,0,1.2,0.4-3.4,2.4"/>
			<path class="st3" d="M222,201.8c0,7.9-6.4,14.3-14.3,14.3l0,0c-7.9,0-14.3-6.4-14.3-14.3v-4.7c0-7.9,6.4-14.3,14.3-14.3l0,0
				c7.9,0,14.3,6.4,14.3,14.3V201.8z"/>
		</g>
		<g>
			<path class="st4" d="M225.2,184l2.9,10.7c0.7,2.5,3.2,3.9,5.7,3.2l0,0c2.5-0.7,3.9-3.2,3.2-5.7c0,0-0.7-3.3-1.2-4.4
				C234.6,185.3,232.4,183.1,225.2,184z"/>
			<path class="st4" d="M190.2,184l-2.9,10.7c-0.7,2.5-3.2,3.9-5.7,3.2l0,0c-2.5-0.7-3.9-3.2-3.2-5.7c0,0,0.7-3.3,1.2-4.4
				C180.8,185.3,183,183.1,190.2,184z"/>
		</g>
	</g>
	<g>
		<g>
			<g>
				<circle class="st5" cx="197.3" cy="168.9" r="2.9"/>
				<path class="st6" d="M197.3,168.4c0-0.6,0.5-1.1,1.1-1.1s1.1,0.5,1.1,1.1s-0.5,1.1-1.1,1.1C197.7,169.4,197.3,169,197.3,168.4z"
					/>
			</g>
			<g>
				<circle class="st5" cx="218.1" cy="168.9" r="2.9"/>
				<path class="st6" d="M218.1,168.4c0-0.6,0.5-1.1,1.1-1.1s1.1,0.5,1.1,1.1s-0.5,1.1-1.1,1.1C218.6,169.4,218.1,169,218.1,168.4z"
					/>
			</g>
		</g>
		<polygon class="st0" points="207.7,181.4 205,176.7 202.3,171.9 207.7,171.9 213.1,171.9 210.4,176.7 		"/>
	</g>
</g>
<g>
	<path class="st4" d="M393.9,115.4c0,0-85.2,63.5,0,106.4c-0.5-1.6,28.1-93.7,28.1-93.7L393.9,115.4z"/>
	<path class="st4" d="M506.6,115.4c0,0,85.2,63.5,0,106.4c0.5-1.6-28.1-93.7-28.1-93.7L506.6,115.4z"/>
	<path class="st1" d="M519.2,189.9c0,38.1-30.9,49.8-68.9,49.8s-69-11.7-69-49.8s30.9-88.2,69-88.2S519.2,151.8,519.2,189.9z"/>
	<path class="st7" d="M450.3,101.7c-38.1,0-68.9,50.2-68.9,88.3c0,28,16.7,41.8,40.8,47.1c-5.5-11.6-7.7-23.6-8-34.5
		c-0.6-21.7,15.9-40.3,37.5-42.2c28-2.5,43.9-17.1,50.3-24.4C489.3,116.3,470.9,101.7,450.3,101.7z"/>
	<path class="st8" d="M515.4,90c0,36-29.2,46.5-65.1,46.5c-36,0-65.1-10.5-65.1-46.5s29.2-74.3,65.1-74.3
		C486.2,15.7,515.4,54.1,515.4,90z"/>
	<path class="st1" d="M467.7,111.6c-53.5-25.2-42-89.7-42-89.7c-23.8,12.3-40.5,40.9-40.5,68.2c0,36,29.2,46.5,65.1,46.5
		c2,0,4,0,5.9-0.1C468.3,125.3,467.9,111.4,467.7,111.6z"/>
	<path class="st9" d="M450.3,91.9l-27.5,8.2c0,0,3.6,15.3,27.5,15.3c23.9,0,27.5-15.3,27.5-15.3L450.3,91.9z"/>
	<path class="st10" d="M480.3,105.4c-0.1,0-0.2,0-0.3,0c-1.5-0.1-15.1-0.8-26.8-9c-1.7-1.2-4.1-1.2-5.9,0c-11.6,8.3-25.2,9-26.8,9
		c-4.7,0.2-8.7-3.5-8.9-8.3c-0.2-4.7,3.5-8.7,8.3-8.9c0.1,0,9.9-0.5,17.4-5.9c7.7-5.5,18-5.5,25.7,0c7.5,5.4,17.4,5.9,17.5,5.9
		c4.7,0.2,8.4,4.1,8.2,8.9C488.7,101.8,484.8,105.4,480.3,105.4z"/>
	<g>
		<path class="st11" d="M486.6,80.9c-1.9,0-3.4-1.5-3.4-3.4v-5.6c0-1.9,1.5-3.4,3.4-3.4s3.4,1.5,3.4,3.4v5.6
			C490,79.4,488.5,80.9,486.6,80.9z"/>
		<path class="st11" d="M413.9,80.9c-1.9,0-3.4-1.5-3.4-3.4v-5.6c0-1.9,1.5-3.4,3.4-3.4s3.4,1.5,3.4,3.4v5.6
			C417.3,79.4,415.8,80.9,413.9,80.9z"/>
	</g>
</g>
<g>
	<path class="st4" d="M334,334.2c0,0-49.8,37.1,0,62.1c-0.3-0.9,16.4-54.7,16.4-54.7L334,334.2z"/>
	<path class="st4" d="M399.8,334.2c0,0,49.8,37.1,0,62.1c0.3-0.9-16.4-54.7-16.4-54.7L399.8,334.2z"/>
	<path class="st1" d="M407.1,377.7c0,22.2-18,29.1-40.3,29.1s-40.3-6.8-40.3-29.1s18-51.5,40.3-51.5S407.1,355.4,407.1,377.7z"/>
	<path class="st7" d="M366.9,326.1c-22.2,0-40.3,29.3-40.3,51.5c0,16.4,9.8,24.4,23.8,27.5c-3.2-6.8-4.5-13.8-4.6-20.2
		c-0.3-12.7,9.3-23.5,21.9-24.7c16.3-1.5,25.7-10,29.4-14.3C389.7,334.7,378.9,326.1,366.9,326.1z"/>
	<path class="st8" d="M404.9,319.4c0,21-17,27.1-38,27.1s-38-6.1-38-27.1s17-43.4,38-43.4C387.9,275.9,404.9,298.3,404.9,319.4z"/>
	<path class="st1" d="M377,331.9c-31.3-14.7-24.5-52.4-24.5-52.4c-13.9,7.2-23.7,23.9-23.7,39.8c0,21,17,27.1,38,27.1
		c1.2,0,2.3,0,3.5-0.1C377.4,339.9,377.2,331.9,377,331.9z"/>
	<path class="st9" d="M366.9,320.4l-16,4.8c0,0,2.1,8.9,16,8.9s16-8.9,16-8.9L366.9,320.4z"/>
	<path class="st10" d="M384.4,328.4c-0.1,0-0.1,0-0.2,0c-0.9,0-8.8-0.4-15.6-5.3c-1-0.7-2.4-0.7-3.4,0c-6.8,4.8-14.7,5.2-15.6,5.3
		c-2.8,0.1-5.1-2.1-5.2-4.8c-0.1-2.8,2.1-5.1,4.8-5.2c0,0,5.8-0.3,10.2-3.4c4.5-3.2,10.5-3.2,15,0c4.4,3.1,10.2,3.4,10.2,3.4
		c2.8,0.1,4.9,2.4,4.8,5.2C389.3,326.2,387.1,328.4,384.4,328.4z"/>
	<g>
		<path class="st11" d="M388.1,314c-1.1,0-2-0.9-2-2v-3.3c0-1.1,0.9-2,2-2s2,0.9,2,2v3.3C390.1,313.1,389.2,314,388.1,314z"/>
		<path class="st11" d="M345.7,314c-1.1,0-2-0.9-2-2v-3.3c0-1.1,0.9-2,2-2s2,0.9,2,2v3.3C347.6,313.1,346.7,314,345.7,314z"/>
	</g>
</g>
<g>
	<path class="st4" d="M267.1,212.4c0,0-49.8,37.1,0,62.1c-0.3-0.9,16.4-54.7,16.4-54.7L267.1,212.4z"/>
	<path class="st4" d="M332.9,212.4c0,0,49.8,37.1,0,62.1c0.3-0.9-16.4-54.7-16.4-54.7L332.9,212.4z"/>
	<path class="st1" d="M340.3,255.9c0,22.2-18,29.1-40.3,29.1s-40.3-6.8-40.3-29.1s18-51.5,40.3-51.5S340.3,233.7,340.3,255.9z"/>
	<path class="st7" d="M300,204.4c-22.2,0-40.3,29.3-40.3,51.5c0,16.4,9.8,24.4,23.8,27.5c-3.2-6.8-4.5-13.8-4.6-20.2
		c-0.3-12.7,9.3-23.5,21.9-24.7c16.3-1.5,25.7-10,29.4-14.3C322.8,212.9,312,204.4,300,204.4z"/>
	<path class="st8" d="M338,197.6c0,21-17,27.1-38,27.1s-38-6.1-38-27.1s17-43.4,38-43.4C321,154.2,338,176.6,338,197.6z"/>
	<path class="st1" d="M310.2,210.2c-31.3-14.7-24.5-52.4-24.5-52.4c-13.9,7.2-23.7,23.9-23.7,39.8c0,21,17,27.1,38,27.1
		c1.2,0,2.3,0,3.5-0.1C310.5,218.2,310.3,210.1,310.2,210.2z"/>
	<path class="st9" d="M300,198.7l-16,4.8c0,0,2.1,8.9,16,8.9s16-8.9,16-8.9L300,198.7z"/>
	<path class="st10" d="M317.5,206.6c-0.1,0-0.1,0-0.2,0c-0.9,0-8.8-0.4-15.6-5.3c-1-0.7-2.4-0.7-3.4,0c-6.8,4.8-14.7,5.2-15.6,5.3
		c-2.8,0.1-5.1-2.1-5.2-4.8c-0.1-2.8,2.1-5.1,4.8-5.2c0,0,5.8-0.3,10.2-3.4c4.5-3.2,10.5-3.2,15,0c4.4,3.1,10.2,3.4,10.2,3.4
		c2.8,0.1,4.9,2.4,4.8,5.2C322.4,204.5,320.2,206.6,317.5,206.6z"/>
	<g>
		<path class="st11" d="M321.2,192.2c-1.1,0-2-0.9-2-2V187c0-1.1,0.9-2,2-2s2,0.9,2,2v3.3C323.2,191.4,322.3,192.2,321.2,192.2z"/>
		<path class="st11" d="M278.8,192.2c-1.1,0-2-0.9-2-2V187c0-1.1,0.9-2,2-2s2,0.9,2,2v3.3C280.7,191.4,279.9,192.2,278.8,192.2z"/>
	</g>
</g>
<g>
	<path class="st4" d="M49.9,70.2c0,0-26.3,19.6,0,32.9c-0.2-0.5,8.7-28.9,8.7-28.9L49.9,70.2z"/>
	<path class="st4" d="M84.7,70.2c0,0,26.3,19.6,0,32.9c0.2-0.5-8.7-28.9-8.7-28.9L84.7,70.2z"/>
	<path class="st1" d="M88.6,93.2c0,11.8-9.5,15.4-21.3,15.4S46,105,46,93.2S55.5,66,67.3,66S88.6,81.4,88.6,93.2z"/>
	<path class="st7" d="M67.3,65.9C55.6,65.9,46,81.4,46,93.2c0,8.7,5.2,12.9,12.6,14.5c-1.7-3.6-2.4-7.3-2.5-10.7
		c-0.2-6.7,4.9-12.4,11.6-13c8.6-0.8,13.6-5.3,15.5-7.5C79.4,70.5,73.7,65.9,67.3,65.9z"/>
	<path class="st8" d="M87.4,62.4c0,11.1-9,14.3-20.1,14.3s-20.1-3.2-20.1-14.3s9-22.9,20.1-22.9C78.4,39.4,87.4,51.3,87.4,62.4z"/>
	<path class="st1" d="M72.7,69c-16.5-7.8-13-27.7-13-27.7c-7.3,3.8-12.5,12.6-12.5,21c0,11.1,9,14.3,20.1,14.3c0.6,0,1.2,0,1.8,0
		C72.9,73.2,72.8,69,72.7,69z"/>
	<path class="st9" d="M67.3,62.9l-8.5,2.5c0,0,1.1,4.7,8.5,4.7s8.5-4.7,8.5-4.7L67.3,62.9z"/>
	<path class="st10" d="M76.6,67.1C76.5,67.1,76.5,67.1,76.6,67.1c-0.6,0-4.8-0.2-8.4-2.8c-0.5-0.4-1.3-0.4-1.8,0
		c-3.6,2.6-7.8,2.8-8.3,2.8c-1.5,0.1-2.7-1.1-2.7-2.5c-0.1-1.5,1.1-2.7,2.5-2.7c0,0,3.1-0.2,5.4-1.8c2.4-1.7,5.6-1.7,7.9,0
		s5.4,1.8,5.4,1.8c1.5,0.1,2.6,1.3,2.5,2.7C79.2,66,78,67.1,76.6,67.1z"/>
	<g>
		<path class="st11" d="M78.5,59.5c-0.6,0-1-0.5-1-1v-1.7c0-0.6,0.5-1,1-1c0.6,0,1,0.5,1,1v1.7C79.6,59.1,79.1,59.5,78.5,59.5z"/>
		<path class="st11" d="M56.1,59.5c-0.6,0-1-0.5-1-1v-1.7c0-0.6,0.5-1,1-1c0.6,0,1,0.5,1,1v1.7C57.1,59.1,56.7,59.5,56.1,59.5z"/>
	</g>
</g>
<g>
	<path class="st4" d="M49.9,206.9c0,0-26.3,19.6,0,32.9c-0.2-0.5,8.7-28.9,8.7-28.9L49.9,206.9z"/>
	<path class="st4" d="M84.7,206.9c0,0,26.3,19.6,0,32.9c0.2-0.5-8.7-28.9-8.7-28.9L84.7,206.9z"/>
	<path class="st1" d="M88.6,229.9c0,11.8-9.5,15.4-21.3,15.4S46,241.7,46,229.9c0-11.8,9.5-27.2,21.3-27.2S88.6,218.2,88.6,229.9z"
		/>
	<path class="st7" d="M67.3,202.7c-11.8,0-21.3,15.5-21.3,27.2c0,8.7,5.2,12.9,12.6,14.5c-1.7-3.6-2.4-7.3-2.5-10.7
		c-0.2-6.7,4.9-12.4,11.6-13c8.6-0.8,13.6-5.3,15.5-7.5C79.4,207.2,73.7,202.7,67.3,202.7z"/>
	<path class="st8" d="M87.4,199.1c0,11.1-9,14.3-20.1,14.3s-20.1-3.2-20.1-14.3s9-22.9,20.1-22.9C78.4,176.1,87.4,188,87.4,199.1z"
		/>
	<path class="st1" d="M72.7,205.7c-16.5-7.8-13-27.7-13-27.7c-7.3,3.8-12.5,12.6-12.5,21c0,11.1,9,14.3,20.1,14.3c0.6,0,1.2,0,1.8,0
		C72.9,210,72.8,205.7,72.7,205.7z"/>
	<path class="st9" d="M67.3,199.7l-8.5,2.5c0,0,1.1,4.7,8.5,4.7s8.5-4.7,8.5-4.7L67.3,199.7z"/>
	<path class="st10" d="M76.6,203.8C76.5,203.8,76.5,203.8,76.6,203.8c-0.6,0-4.8-0.2-8.4-2.8c-0.5-0.4-1.3-0.4-1.8,0
		c-3.6,2.6-7.8,2.8-8.3,2.8c-1.5,0.1-2.7-1.1-2.7-2.5c-0.1-1.5,1.1-2.7,2.5-2.7c0,0,3.1-0.2,5.4-1.8c2.4-1.7,5.6-1.7,7.9,0
		s5.4,1.8,5.4,1.8c1.5,0.1,2.6,1.3,2.5,2.7C79.2,202.7,78,203.8,76.6,203.8z"/>
	<g>
		<path class="st11" d="M78.5,196.3c-0.6,0-1-0.5-1-1v-1.7c0-0.6,0.5-1,1-1c0.6,0,1,0.5,1,1v1.7C79.6,195.8,79.1,196.3,78.5,196.3z"
			/>
		<path class="st11" d="M56.1,196.3c-0.6,0-1-0.5-1-1v-1.7c0-0.6,0.5-1,1-1c0.6,0,1,0.5,1,1v1.7C57.1,195.8,56.7,196.3,56.1,196.3z"
			/>
	</g>
</g>
<g>
	<path class="st4" d="M262.6,91.4c0,0-34.9,26,0,43.5c-0.2-0.6,11.5-38.3,11.5-38.3L262.6,91.4z"/>
	<path class="st4" d="M308.7,91.4c0,0,34.9,26,0,43.5c0.2-0.6-11.5-38.3-11.5-38.3L308.7,91.4z"/>
	<path class="st1" d="M313.9,121.9c0,15.6-12.6,20.4-28.2,20.4s-28.2-4.8-28.2-20.4s12.6-36.1,28.2-36.1
		C301.2,85.8,313.9,106.4,313.9,121.9z"/>
	<path class="st7" d="M285.7,85.8c-15.6,0-28.2,20.5-28.2,36.1c0,11.5,6.8,17.1,16.7,19.3c-2.3-4.8-3.1-9.6-3.3-14.1
		c-0.2-8.9,6.5-16.5,15.3-17.3c11.4-1,18-7,20.6-10C301.7,91.8,294.1,85.8,285.7,85.8z"/>
	<path class="st8" d="M312.3,81.1c0,14.7-11.9,19-26.6,19s-26.6-4.3-26.6-19s11.9-30.4,26.6-30.4S312.3,66.4,312.3,81.1z"/>
	<path class="st1" d="M292.8,89.9c-21.9-10.3-17.2-36.7-17.2-36.7c-9.7,5-16.6,16.7-16.6,27.9c0,14.7,11.9,19,26.6,19
		c0.8,0,1.6,0,2.4,0C293,95.5,292.9,89.8,292.8,89.9z"/>
	<path class="st9" d="M285.7,81.8l-11.2,3.4c0,0,1.5,6.3,11.2,6.3s11.2-6.3,11.2-6.3L285.7,81.8z"/>
	<path class="st10" d="M297.9,87.4h-0.1c-0.6,0-6.2-0.3-10.9-3.7c-0.7-0.5-1.7-0.5-2.4,0c-4.8,3.4-10.3,3.7-10.9,3.7
		c-1.9,0.1-3.6-1.4-3.6-3.4c-0.1-1.9,1.4-3.6,3.4-3.6c0,0,4-0.2,7.1-2.4c3.1-2.2,7.4-2.2,10.5,0s7.1,2.4,7.1,2.4
		c1.9,0.1,3.4,1.7,3.4,3.6C301.4,85.9,299.8,87.4,297.9,87.4z"/>
	<g>
		<path class="st11" d="M300.5,77.3c-0.8,0-1.4-0.6-1.4-1.4v-2.3c0-0.8,0.6-1.4,1.4-1.4s1.4,0.6,1.4,1.4v2.3
			C301.9,76.7,301.3,77.3,300.5,77.3z"/>
		<path class="st11" d="M270.8,77.3c-0.8,0-1.4-0.6-1.4-1.4v-2.3c0-0.8,0.6-1.4,1.4-1.4s1.4,0.6,1.4,1.4v2.3
			C272.2,76.7,271.6,77.3,270.8,77.3z"/>
	</g>
</g>
<g>
	<path class="st4" d="M194,355.1c0,0-49.8,37.1,0,62.1c-0.3-0.9,16.4-54.7,16.4-54.7L194,355.1z"/>
	<path class="st4" d="M259.9,355.1c0,0,49.8,37.1,0,62.1c0.3-0.9-16.4-54.7-16.4-54.7L259.9,355.1z"/>
	<path class="st1" d="M267.2,398.6c0,22.2-18,29.1-40.3,29.1s-40.3-6.8-40.3-29.1s18-51.5,40.3-51.5S267.2,376.4,267.2,398.6z"/>
	<path class="st7" d="M227,347.1c-22.2,0-40.3,29.3-40.3,51.5c0,16.4,9.8,24.4,23.8,27.5c-3.2-6.8-4.5-13.8-4.6-20.2
		c-0.3-12.7,9.3-23.5,21.9-24.7c16.3-1.5,25.7-10,29.4-14.3C249.8,355.6,239,347.1,227,347.1z"/>
	<path class="st8" d="M265,340.3c0,21-17,27.1-38,27.1s-38-6.1-38-27.1s17-43.4,38-43.4S265,319.3,265,340.3z"/>
	<path class="st1" d="M237.1,352.9c-31.3-14.7-24.5-52.4-24.5-52.4c-13.9,7.2-23.7,23.9-23.7,39.8c0,21,17,27.1,38,27.1
		c1.2,0,2.3,0,3.5-0.1C237.5,360.9,237.3,352.8,237.1,352.9z"/>
	<path class="st9" d="M227,341.4l-16,4.8c0,0,2.1,8.9,16,8.9s16-8.9,16-8.9L227,341.4z"/>
	<path class="st10" d="M244.5,349.3c-0.1,0-0.1,0-0.2,0c-0.9,0-8.8-0.4-15.6-5.3c-1-0.7-2.4-0.7-3.4,0c-6.8,4.8-14.7,5.2-15.6,5.3
		c-2.8,0.1-5.1-2.1-5.2-4.8c-0.1-2.8,2.1-5.1,4.8-5.2c0,0,5.8-0.3,10.2-3.4c4.5-3.2,10.5-3.2,15,0c4.4,3.1,10.2,3.4,10.2,3.4
		c2.8,0.1,4.9,2.4,4.8,5.2C249.4,347.1,247.2,349.3,244.5,349.3z"/>
	<g>
		<path class="st11" d="M248.2,334.9c-1.1,0-2-0.9-2-2v-3.3c0-1.1,0.9-2,2-2s2,0.9,2,2v3.3C250.2,334,249.3,334.9,248.2,334.9z"/>
		<path class="st11" d="M205.7,334.9c-1.1,0-2-0.9-2-2v-3.3c0-1.1,0.9-2,2-2s2,0.9,2,2v3.3C207.7,334,206.8,334.9,205.7,334.9z"/>
	</g>
</g>
<g>
	<path class="st4" d="M107.4,118.6c0,0-36.4,27.1,0,45.5c-0.2-0.7,12-40,12-40L107.4,118.6z"/>
	<path class="st4" d="M155.5,118.6c0,0,36.4,27.1,0,45.5c0.2-0.7-12-40-12-40L155.5,118.6z"/>
	<path class="st1" d="M160.9,150.5c0,16.3-13.2,21.3-29.5,21.3s-29.5-5-29.5-21.3s13.2-37.7,29.5-37.7S160.9,134.2,160.9,150.5z"/>
	<path class="st7" d="M131.4,112.7c-16.3,0-29.5,21.4-29.5,37.7c0,12,7.2,17.9,17.4,20.1c-2.4-5-3.3-10.1-3.4-14.8
		c-0.2-9.3,6.8-17.2,16-18c11.9-1.1,18.8-7.3,21.5-10.4C148.1,119,140.2,112.7,131.4,112.7z"/>
	<path class="st8" d="M159.3,107.8c0,15.4-12.5,19.9-27.8,19.9c-15.4,0-27.8-4.5-27.8-19.9S116.2,76,131.5,76
		S159.3,92.4,159.3,107.8z"/>
	<path class="st1" d="M138.9,117C116,106.2,121,78.7,121,78.7c-10.2,5.2-17.3,17.5-17.3,29.1c0,15.4,12.5,19.9,27.8,19.9
		c0.9,0,1.7,0,2.5,0C139.1,122.8,139,116.9,138.9,117z"/>
	<path class="st9" d="M131.4,108.6l-11.7,3.5c0,0,1.5,6.5,11.7,6.5s11.7-6.5,11.7-6.5L131.4,108.6z"/>
	<path class="st10" d="M144.3,114.4h-0.1c-0.6,0-6.5-0.3-11.4-3.9c-0.7-0.5-1.8-0.5-2.5,0c-5,3.5-10.8,3.8-11.4,3.9
		c-2,0.1-3.7-1.5-3.8-3.5c-0.1-2,1.5-3.7,3.5-3.8c0,0,4.2-0.2,7.5-2.5c3.3-2.3,7.7-2.3,11,0c3.2,2.3,7.4,2.5,7.5,2.5
		c2,0.1,3.6,1.8,3.5,3.8C147.8,112.8,146.2,114.4,144.3,114.4z"/>
	<g>
		<path class="st11" d="M147,103.9c-0.8,0-1.4-0.6-1.4-1.4V100c0-0.8,0.6-1.4,1.4-1.4c0.8,0,1.4,0.6,1.4,1.4v2.4
			C148.4,103.2,147.8,103.9,147,103.9z"/>
		<path class="st11" d="M115.9,103.9c-0.8,0-1.4-0.6-1.4-1.4V100c0-0.8,0.6-1.4,1.4-1.4s1.4,0.6,1.4,1.4v2.4
			C117.4,103.2,116.7,103.9,115.9,103.9z"/>
	</g>
</g>
<g>
	<path class="st4" d="M114.9,261.5c0,0-43.4,32.4,0,54.2c-0.3-0.8,14.3-47.8,14.3-47.8L114.9,261.5z"/>
	<path class="st4" d="M172.3,261.5c0,0,43.4,32.4,0,54.2C172.6,315,158,268,158,268L172.3,261.5z"/>
	<path class="st1" d="M178.7,299.5c0,19.4-15.7,25.4-35.1,25.4s-35.1-6-35.1-25.4s15.7-45,35.1-45S178.7,280.1,178.7,299.5z"/>
	<path class="st7" d="M143.6,254.5c-19.4,0-35.1,25.6-35.1,45c0,14.3,8.5,21.3,20.8,24c-2.8-5.9-3.9-12-4.1-17.6
		c-0.3-11.1,8.1-20.5,19.1-21.5c14.3-1.3,22.4-8.7,25.7-12.5C163.5,262,154.1,254.5,143.6,254.5z"/>
	<path class="st8" d="M176.8,248.6c0,18.3-14.9,23.7-33.2,23.7s-33.2-5.3-33.2-23.7c0-18.3,14.9-37.9,33.2-37.9
		C161.9,210.7,176.8,230.3,176.8,248.6z"/>
	<path class="st1" d="M152.4,259.6c-27.3-12.8-21.4-45.7-21.4-45.7c-12.1,6.2-20.7,20.8-20.7,34.7c0,18.3,14.9,23.7,33.2,23.7
		c1,0,2,0,3-0.1C152.7,266.6,152.6,259.5,152.4,259.6z"/>
	<path class="st9" d="M143.6,249.6l-14,4.2c0,0,1.8,7.8,14,7.8s14-7.8,14-7.8L143.6,249.6z"/>
	<path class="st10" d="M158.9,256.5c-0.1,0-0.1,0-0.2,0c-0.8,0-7.7-0.4-13.6-4.6c-0.9-0.6-2.1-0.6-3,0c-5.9,4.2-12.9,4.6-13.6,4.6
		c-2.4,0.1-4.4-1.8-4.5-4.2c-0.1-2.4,1.8-4.4,4.2-4.5c0,0,5-0.3,8.9-3c3.9-2.8,9.2-2.8,13.1,0c3.8,2.7,8.9,3,8.9,3
		c2.4,0.1,4.3,2.1,4.2,4.5C163.2,254.6,161.2,256.5,158.9,256.5z"/>
	<g>
		<path class="st11" d="M162.1,243.9c-1,0-1.7-0.8-1.7-1.7v-2.9c0-1,0.8-1.7,1.7-1.7c1,0,1.7,0.8,1.7,1.7v2.9
			C163.8,243.2,163.1,243.9,162.1,243.9z"/>
		<path class="st11" d="M125.1,243.9c-1,0-1.7-0.8-1.7-1.7v-2.9c0-1,0.8-1.7,1.7-1.7c1,0,1.7,0.8,1.7,1.7v2.9
			C126.8,243.2,126,243.9,125.1,243.9z"/>
	</g>
</g>
</svg>
